PathFileType  4	(X/Y/Z) C:\Users\antoi\Documents\MyRepositories\mobilecap\ResultsAnalysis
DataRate	CameraRate	NumFrames	NumMarkers	Units	OrigDataRate	OrigDataStartFrame	OrigNumFrames
100.0	100.0	4	55	mm	100.0	425	679
Frame#	Time	r_knee			r_shank_antsup			r_ankle			r_calc			r_5meta			r_toe			L_knee			L_shank_antsup			L_ankle			L_calc			L_5meta			L_toe			r_mknee			r_mankle			L_mknee			L_mankle			r_sh2			r_sh3			r_sh4			L_sh2			L_sh3			r_thigh1			r_thigh2			r_thigh3			r_thigh4			r_thigh5			L_thigh1			L_thigh2			L_thigh3			L_thigh4			r.ASIS			r.PSIS			L.ASIS			L.PSIS			C7			R_Shoulder			L_Shoulder			R_Sternum			L_Sternum			R_humerus			R_elbow_med			R_elbow_lat			R_forearm			R_wrist_radius			R_wrist_ulna			L_humerus			L_elbow_med			L_elbow_lat			L_forearm			L_wrist_radius			L_wrist_ulna			R_HJC			L_HJC			R_HJC_reg			L_HJC_reg			
		X1	Y1	Z1	X2	Y2	Z2	X3	Y3	Z3	X4	Y4	Z4	X5	Y5	Z5	X6	Y6	Z6	X7	Y7	Z7	X8	Y8	Z8	X9	Y9	Z9	X10	Y10	Z10	X11	Y11	Z11	X12	Y12	Z12	X13	Y13	Z13	X14	Y14	Z14	X15	Y15	Z15	X16	Y16	Z16	X17	Y17	Z17	X18	Y18	Z18	X19	Y19	Z19	X20	Y20	Z20	X21	Y21	Z21	X22	Y22	Z22	X23	Y23	Z23	X24	Y24	Z24	X25	Y25	Z25	X26	Y26	Z26	X27	Y27	Z27	X28	Y28	Z28	X29	Y29	Z29	X30	Y30	Z30	X31	Y31	Z31	X32	Y32	Z32	X33	Y33	Z33	X34	Y34	Z34	X35	Y35	Z35	X36	Y36	Z36	X37	Y37	Z37	X38	Y38	Z38	X39	Y39	Z39	X40	Y40	Z40	X41	Y41	Z41	X42	Y42	Z42	X43	Y43	Z43	X44	Y44	Z44	X45	Y45	Z45	X46	Y46	Z46	X47	Y47	Z47	X48	Y48	Z48	X49	Y49	Z49	X50	Y50	Z50	X51	Y51	Z51	X52	Y52	Z52	X53	Y53	Z53	X54	Y54	Z54	X55	Y55	Z55	

425	4.24000000	-221.74540	474.05056	-434.10529	-190.28051	365.31958	-449.16129	-256.40507	89.96090	-466.08231	-302.51042	52.06052	-517.36651	-141.73427	39.90004	-434.78248	-105.46416	58.71872	-476.79268	-215.35861	475.62428	-787.05021	-179.90138	374.69147	-748.06349	-256.24311	88.14625	-770.96642	-296.37883	51.10416	-719.63026	-134.26441	36.59674	-788.98001	-94.65477	58.64982	-736.06452	-240.49203	474.05185	-566.89965	-231.15961	108.04259	-544.03713	-224.27645	474.06639	-655.57017	-226.10286	103.95578	-689.49097	-199.13935	253.31138	-459.84295	-245.49160	363.03292	-397.02504	-270.93928	256.73845	-417.83339	-234.43638	397.97772	-815.98565	-245.60859	277.11888	-826.90794	-125.18641	776.95351	-452.39993	-125.27853	665.92335	-448.10199	-169.14770	641.79274	-404.13064	-227.51019	775.17948	-404.21356	-222.14494	659.69443	-399.39836	-131.79744	767.74798	-784.50340	-126.05274	628.90833	-782.72280	-236.59756	769.31375	-823.78483	-233.10582	628.46375	-816.11539	-115.30935	939.68191	-486.12070	-294.32507	988.65277	-561.12559	-102.77152	938.20480	-732.29818	-292.42386	988.10067	-677.49629	-294.48767	1435.00541	-620.91494	-238.85341	1408.56008	-464.90762	-234.32598	1414.26990	-778.25626	-167.90092	1400.56682	-604.62253	-165.01224	1397.64109	-642.56495	-206.13853	1281.94720	-402.67462	-257.89432	1081.51595	-456.44681	-230.82133	1087.30338	-386.47711	-168.24857	978.02884	-369.55993	-126.06252	881.42763	-373.76144	-157.27565	870.90220	-356.12258	-198.95012	1263.25019	-837.76841	-244.59630	1072.29573	-775.15393	-228.05535	1078.00123	-847.05952	-170.63424	997.43578	-864.37019	-120.41367	874.75257	-849.89299	-146.09364	866.21306	-869.03765	-206.27929	871.14848	-515.68222	-193.79410	866.55045	-704.59204	-186.66773	872.24124	-521.50308	-184.01015	871.46950	-684.17017	
426	4.25000000	-221.71725	474.00070	-434.14312	-190.26940	365.30921	-449.18429	-256.40393	89.95730	-466.08936	-302.51948	52.07804	-517.41097	-141.73792	39.77915	-434.93532	-105.47541	58.70477	-476.83459	-215.36165	475.62602	-787.06251	-179.89564	374.66873	-748.10985	-256.24250	88.14778	-770.96368	-296.50470	51.37459	-719.86144	-134.24691	36.60034	-788.92144	-94.64860	58.68366	-736.03271	-240.48323	474.05161	-566.90979	-231.16086	108.04419	-544.03726	-224.28068	474.06932	-655.57383	-226.14148	103.91461	-689.46934	-199.11058	253.30823	-459.87537	-245.49454	363.01083	-397.03741	-270.93625	256.72766	-417.84219	-234.42971	397.97060	-815.98847	-245.58350	277.13268	-826.90983	-125.18035	776.96430	-452.40480	-125.26137	665.92043	-448.12763	-169.12276	641.78187	-404.14793	-227.50204	775.11655	-404.21501	-222.42503	659.55105	-399.66856	-131.80349	767.74249	-784.51065	-126.07259	628.90023	-782.76552	-236.59999	769.30750	-823.79397	-233.12329	628.49811	-816.13771	-115.29104	939.66850	-486.15947	-294.32426	988.63904	-561.12557	-102.74628	938.23489	-732.34790	-292.43078	988.09999	-677.52285	-294.55221	1435.08829	-621.02843	-238.89433	1408.53180	-464.90888	-234.40493	1414.24640	-778.25307	-167.92841	1400.57089	-604.64423	-165.05608	1397.63712	-642.57026	-206.16819	1281.93039	-402.69021	-257.79019	1081.36619	-456.56393	-230.82991	1087.28235	-386.49265	-168.26719	978.02352	-369.56967	-126.05069	881.42468	-373.76273	-157.27271	870.89157	-356.12965	-199.06259	1263.24290	-837.81391	-244.67196	1072.29595	-775.11499	-228.09715	1077.99597	-847.06125	-170.66139	997.42855	-864.36661	-120.42578	874.74818	-849.89476	-146.06414	866.24719	-869.10522	-206.25325	871.13098	-515.72708	-193.77811	866.56792	-704.63841	-186.64076	872.23286	-521.54577	-183.99447	871.47949	-684.22042	
427	4.26000000	-221.71385	473.98418	-434.12296	-190.26166	365.28717	-449.19275	-256.41014	89.95319	-466.07923	-302.50533	52.09545	-517.41404	-141.73166	39.69290	-435.04496	-105.48023	58.70284	-476.83560	-215.36624	475.62986	-787.06981	-179.89022	374.66318	-748.11067	-256.24101	88.15285	-770.96099	-296.54449	51.41006	-719.90212	-134.24444	36.60251	-788.92671	-94.65883	58.68592	-736.00753	-240.48008	474.05061	-566.91241	-231.16528	108.04968	-544.03822	-224.28684	474.07994	-655.57278	-226.00697	103.85996	-689.51820	-199.07136	253.30688	-459.94018	-245.47758	363.01022	-397.03839	-270.95602	256.73553	-417.82947	-234.42945	397.95896	-815.99820	-245.57951	277.05097	-826.93674	-125.19292	776.98961	-452.42258	-125.25340	665.93882	-448.07822	-169.11795	641.79283	-404.18507	-227.47101	775.15717	-404.18459	-222.62964	659.47454	-399.85407	-131.80985	767.73700	-784.51762	-126.09293	628.91090	-782.77845	-236.60185	769.29606	-823.80732	-233.13782	628.50070	-816.15393	-115.26719	939.67726	-486.17889	-294.32080	988.62863	-561.12796	-102.75042	938.23418	-732.35268	-292.41313	988.09297	-677.53269	-294.59010	1435.08807	-621.14088	-238.91441	1408.49493	-464.92372	-234.49179	1414.19840	-778.22176	-167.95968	1400.55742	-604.66667	-165.13195	1397.62486	-642.58957	-206.17696	1281.92216	-402.70965	-257.72165	1081.27337	-456.63864	-230.84168	1087.27003	-386.50269	-168.27528	978.00450	-369.56804	-126.04998	881.43359	-373.75891	-157.27058	870.89528	-356.15124	-199.15074	1263.23577	-837.81810	-244.68716	1072.29115	-775.12039	-228.14951	1077.94620	-847.04633	-170.69726	997.41364	-864.37100	-120.44605	874.73802	-849.90141	-146.08298	866.25869	-869.11092	-206.23200	871.13156	-515.73288	-193.76696	866.56307	-704.64475	-186.62896	872.22707	-521.57424	-183.96319	871.47852	-684.23805	
428	4.27000000	-221.71810	474.01330	-434.07430	-190.25238	365.27879	-449.19295	-256.40300	89.97517	-466.04466	-302.49080	52.09070	-517.37351	-141.72676	39.76649	-434.96742	-105.46491	58.71375	-476.81691	-215.37022	475.62823	-787.06980	-179.90121	374.66575	-748.11323	-256.24052	88.14718	-770.96475	-296.54706	51.31098	-719.81858	-134.27305	36.59165	-789.00866	-94.67806	58.64354	-736.02517	-240.48487	474.04906	-566.90606	-231.16632	108.05244	-544.03931	-224.29810	474.09932	-655.56828	-225.87038	103.97514	-689.57844	-199.04747	253.30183	-459.96882	-245.44663	363.02718	-397.01453	-270.87820	256.81449	-417.76747	-234.43570	397.94509	-816.02529	-245.61066	277.01011	-826.95944	-125.19687	776.99666	-452.40876	-125.24935	665.94288	-448.08085	-169.13331	641.82757	-404.15089	-227.44775	775.21259	-404.16615	-222.44132	659.59724	-399.66338	-131.81074	767.73655	-784.51791	-126.09804	628.96840	-782.73562	-236.60503	769.28675	-823.81198	-233.14945	628.48285	-816.15397	-115.26509	939.71290	-486.15607	-294.32188	988.61652	-561.13322	-102.77577	938.21443	-732.32825	-292.42090	988.07555	-677.52748	-294.63379	1434.98360	-621.14199	-238.95057	1408.48897	-464.90733	-234.56938	1414.15225	-778.21652	-167.99893	1400.51340	-604.67704	-165.19897	1397.61293	-642.62429	-206.19438	1281.91427	-402.72998	-257.71679	1081.26005	-456.64714	-230.85303	1087.25703	-386.49865	-168.26238	977.98665	-369.55851	-126.04219	881.44000	-373.76135	-157.26312	870.89626	-356.18469	-199.21663	1263.22497	-837.80637	-244.67130	1072.26839	-775.15396	-228.20287	1077.87461	-847.02340	-170.73968	997.39141	-864.37850	-120.47215	874.72592	-849.91335	-146.12380	866.41006	-869.03812	-206.22962	871.14926	-515.70073	-193.76755	866.54057	-704.61182	-186.61752	872.22177	-521.54371	-183.96089	871.46576	-684.20587	
